<?xml version="1.0" encoding="UTF-8" standalone="no"?>
<!DOCTYPE svg PUBLIC "-//W3C//DTD SVG 1.1//EN" "http://www.w3.org/Graphics/SVG/1.1/DTD/svg11.dtd">
<svg width="100%" height="100%" viewBox="0 0 1200 1200" version="1.1" xmlns="http://www.w3.org/2000/svg" xmlns:xlink="http://www.w3.org/1999/xlink" xml:space="preserve" xmlns:serif="http://www.serif.com/" style="fill-rule:evenodd;clip-rule:evenodd;stroke-linejoin:round;stroke-miterlimit:2;">


  <filter filterUnits="userSpaceOnUse" id="turbulencia" x="0" y="0" width="100%" height="100%">
    <feTurbulence id="turbulencia_base" numOctaves="3" seed="2" baseFrequency="0.02 0.05"></feTurbulence>
    <feDisplacementMap scale="20" in="SourceGraphic"></feDisplacementMap>
  </filter>

  <animate xlink:href="#turbulencia_base" attributeName="baseFrequency" dur="60s" keyTimes="0;0.5;1" values="0.01 0.02;0.02 0.03;0.01 0.03" repeatCount="indefinite"/>

    <g id="ser" class="nodo" transform="matrix(1,0,0,1,84,88)">
        <g class="circulo" transform="matrix(1,0,0,1,-12,13)">
            <g transform="matrix(1,0,0,1,-179,-8)">
                <circle cx="512.5" cy="229.5" r="53.5" style="fill:rgb(255,235,187);"/>
                <path d="M512.5,173.774C497.273,174.183 483.681,180.703 473.902,190.902C468.993,196.021 465.156,202.095 462.345,208.727C459.623,215.149 457.813,222.098 457.591,229.5C457.213,240.118 459.847,250.152 464.792,258.737C466.999,262.568 469.65,266.13 472.752,269.248C476.883,273.399 481.772,276.787 487.097,279.355C494.765,283.052 503.414,284.968 512.5,284.697C522.993,284.408 532.661,281.131 540.916,275.873C544.529,273.571 547.876,270.903 550.906,267.906C553.941,264.905 556.673,261.599 558.994,257.991C564.3,249.744 567.508,240.013 567.773,229.5C568.034,218.846 565.335,208.776 560.241,200.243C557.98,196.454 555.209,192.999 552.096,189.904C541.955,179.819 527.917,173.67 512.5,173.774ZM512.5,178.226C526.611,178.321 539.3,184.188 548.549,193.451C552.315,197.222 555.497,201.56 558.019,206.313C561.707,213.265 564.011,221.098 564.227,229.5C564.479,239.476 561.945,248.885 557.239,256.912C555.143,260.488 552.639,263.807 549.739,266.739C546.837,269.675 543.557,272.246 539.987,274.361C531.963,279.113 522.498,281.578 512.5,281.303C504.093,281.052 496.255,278.737 489.326,274.993C484.603,272.44 480.372,269.149 476.602,265.398C473.77,262.58 471.174,259.527 468.975,256.166C463.93,248.454 460.76,239.377 460.409,229.5C460.196,222.394 461.262,215.527 463.783,209.323C466.401,202.88 470.509,197.193 475.453,192.453C485.038,183.262 498.19,177.841 512.5,178.226Z" style="fill:rgb(222,197,140);"/>
            </g>
            <g class="marcador" transform="matrix(1.24299,0,0,1.24299,-303.533,-63.7664)">
                <path d="M512.5,173.819C497.234,174.088 483.516,180.489 473.658,190.658C463.918,200.706 457.922,214.416 458.126,229.5C458.165,238.377 460.442,246.694 464.148,254.135C466.709,259.277 469.946,264.011 473.841,268.159C483.575,278.526 497.181,285.195 512.5,285.776C515.195,285.83 517.853,285.728 520.448,285.37C522.218,285.126 523.956,284.764 525.658,284.314C535.789,281.631 544.706,276.045 551.63,268.63C556.524,263.389 560.353,257.2 562.982,250.409C564.005,247.764 564.86,245.037 565.516,242.227C566.471,238.136 567.034,233.883 567.045,229.5C567.215,214.382 561.177,200.656 551.394,190.606C541.51,180.45 527.775,174.061 512.5,173.819ZM512.5,178.181C526.755,177.955 539.774,183.524 549.251,192.749C558.831,202.074 564.793,215.089 564.955,229.5C564.966,233.718 564.511,237.83 563.547,241.755C562.885,244.446 561.995,247.051 560.89,249.541C558.097,255.837 553.974,261.386 549.016,266.016C542.226,272.356 533.708,276.735 524.324,278.749C522.781,279.08 521.215,279.345 519.63,279.574C517.297,279.912 514.924,280.175 512.5,280.224C498.273,280.763 485.142,275.527 475.514,266.486C471.513,262.73 468.076,258.349 465.505,253.442C461.763,246.301 459.836,238.109 459.874,229.5C460.069,215.055 466.074,202.024 475.697,192.697C485.2,183.484 498.234,177.93 512.5,178.181Z" style="fill:rgb(222,197,140);"/>
            </g>
        </g>
        <g transform="matrix(1,0,0,1,0,-21.3664)">
            <text x="342px" y="229px" style="font-family:'LibreBaskerville-Regular', 'Libre Baskerville';font-size:47.751px;stroke:rgb(2,2,2);stroke-width:1px;">S<tspan x="379.962px 414.486px " y="229px 229px ">er</tspan></text>
        </g>
        <g transform="matrix(1,0,0,1,-18.1341,1.72278)">
            <text x="344.149px" y="246px" style="font-family:'LibreBaskerville-Regular', 'Libre Baskerville';font-size:25.202px;stroke:rgb(2,2,2);stroke-width:1px;">El Silencio Donde Escucho</text>
        </g>
    </g>
    <g id="propuestas" class="nodo" transform="matrix(1,0,0,1,137.028,83)">
        <g class="circulo" transform="matrix(1,0,0,1,-126.851,580.865)">
            <g transform="matrix(1,0,0,1,-179,-8)">
                <circle cx="512.5" cy="229.5" r="53.5" style="fill:rgb(187,205,255);"/>
                <path d="M512.5,173.774C497.273,174.183 483.681,180.703 473.902,190.902C468.993,196.021 465.156,202.095 462.345,208.727C459.623,215.149 457.813,222.098 457.591,229.5C457.213,240.118 459.847,250.152 464.792,258.737C466.999,262.568 469.65,266.13 472.752,269.248C476.883,273.399 481.772,276.787 487.097,279.355C494.765,283.052 503.414,284.968 512.5,284.697C522.993,284.408 532.661,281.131 540.916,275.873C544.529,273.571 547.876,270.903 550.906,267.906C553.941,264.905 556.673,261.599 558.994,257.991C564.3,249.744 567.508,240.013 567.773,229.5C568.034,218.846 565.335,208.776 560.241,200.243C557.98,196.454 555.209,192.999 552.096,189.904C541.955,179.819 527.917,173.67 512.5,173.774ZM512.5,178.226C526.611,178.321 539.3,184.188 548.549,193.451C552.315,197.222 555.497,201.56 558.019,206.313C561.707,213.265 564.011,221.098 564.227,229.5C564.479,239.476 561.945,248.885 557.239,256.912C555.143,260.488 552.639,263.807 549.739,266.739C546.837,269.675 543.557,272.246 539.987,274.361C531.963,279.113 522.498,281.578 512.5,281.303C504.093,281.052 496.255,278.737 489.326,274.993C484.603,272.44 480.372,269.149 476.602,265.398C473.77,262.58 471.174,259.527 468.975,256.166C463.93,248.454 460.76,239.377 460.409,229.5C460.196,222.394 461.262,215.527 463.783,209.323C466.401,202.88 470.509,197.193 475.453,192.453C485.038,183.262 498.19,177.841 512.5,178.226Z" style="fill:rgb(132,150,200);"/>
            </g>
            <g class="marcador" transform="matrix(1.24299,0,0,1.24299,-303.533,-63.7664)">
                <path d="M512.5,173.819C497.234,174.088 483.516,180.489 473.658,190.658C463.918,200.706 457.922,214.416 458.126,229.5C458.165,238.377 460.442,246.694 464.148,254.135C466.709,259.277 469.946,264.011 473.841,268.159C483.575,278.526 497.181,285.195 512.5,285.776C515.195,285.83 517.853,285.728 520.448,285.37C522.218,285.126 523.956,284.764 525.658,284.314C535.789,281.631 544.706,276.045 551.63,268.63C556.524,263.389 560.353,257.2 562.982,250.409C564.005,247.764 564.86,245.037 565.516,242.227C566.471,238.136 567.034,233.883 567.045,229.5C567.215,214.382 561.177,200.656 551.394,190.606C541.51,180.45 527.775,174.061 512.5,173.819ZM512.5,178.181C526.755,177.955 539.774,183.524 549.251,192.749C558.831,202.074 564.793,215.089 564.955,229.5C564.966,233.718 564.511,237.83 563.547,241.755C562.885,244.446 561.995,247.051 560.89,249.541C558.097,255.837 553.974,261.386 549.016,266.016C542.226,272.356 533.708,276.735 524.324,278.749C522.781,279.08 521.215,279.345 519.63,279.574C517.297,279.912 514.924,280.175 512.5,280.224C498.273,280.763 485.142,275.527 475.514,266.486C471.513,262.73 468.076,258.349 465.505,253.442C461.763,246.301 459.836,238.109 459.874,229.5C460.069,215.055 466.074,202.024 475.697,192.697C485.2,183.484 498.234,177.93 512.5,178.181Z" style="fill:rgb(132,150,200);"/>
            </g>
        </g>
        <g transform="matrix(1,0,0,1,-115,543.634)">
            <text x="342px" y="229px" style="font-family:'LibreBaskerville-Regular', 'Libre Baskerville';font-size:47.751px;stroke:rgb(2,2,2);stroke-width:1px;">P<tspan x="381.968px 411.383px 449.775px 489.36px 528.517px 563.041px 591.883px 617.095px 650.712px " y="229px 229px 229px 229px 229px 229px 229px 229px 229px ">ropuestas</tspan></text>
        </g>
        <g transform="matrix(1,0,0,1,-133.134,566.723)">
            <text x="344.149px" y="246px" style="font-family:'LibreBaskerville-Regular', 'Libre Baskerville';font-size:25.202px;stroke:rgb(2,2,2);stroke-width:1px;">Encuentr<tspan x="463.279px " y="246px ">o</tspan>s, taller<tspan x="571.371px " y="246px ">e</tspan>s, seminarios</text>
        </g>
    </g>
    <g id="escritos" class="nodo" transform="matrix(1,0,0,1,84,88)">
        <g class="circulo" transform="matrix(1,0,0,1,303,290.194)">
            <g transform="matrix(1,0,0,1,-179,-8)">
                <circle cx="512.5" cy="229.5" r="53.5" style="fill:rgb(216,235,216);"/>
                <path d="M512.5,173.774C497.273,174.183 483.681,180.703 473.902,190.902C468.993,196.021 465.156,202.095 462.345,208.727C459.623,215.149 457.813,222.098 457.591,229.5C457.213,240.118 459.847,250.152 464.792,258.737C466.999,262.568 469.65,266.13 472.752,269.248C476.883,273.399 481.772,276.787 487.097,279.355C494.765,283.052 503.414,284.968 512.5,284.697C522.993,284.408 532.661,281.131 540.916,275.873C544.529,273.571 547.876,270.903 550.906,267.906C553.941,264.905 556.673,261.599 558.994,257.991C564.3,249.744 567.508,240.013 567.773,229.5C568.034,218.846 565.335,208.776 560.241,200.243C557.98,196.454 555.209,192.999 552.096,189.904C541.955,179.819 527.917,173.67 512.5,173.774ZM512.5,178.226C526.611,178.321 539.3,184.188 548.549,193.451C552.315,197.222 555.497,201.56 558.019,206.313C561.707,213.265 564.011,221.098 564.227,229.5C564.479,239.476 561.945,248.885 557.239,256.912C555.143,260.488 552.639,263.807 549.739,266.739C546.837,269.675 543.557,272.246 539.987,274.361C531.963,279.113 522.498,281.578 512.5,281.303C504.093,281.052 496.255,278.737 489.326,274.993C484.603,272.44 480.372,269.149 476.602,265.398C473.77,262.58 471.174,259.527 468.975,256.166C463.93,248.454 460.76,239.377 460.409,229.5C460.196,222.394 461.262,215.527 463.783,209.323C466.401,202.88 470.509,197.193 475.453,192.453C485.038,183.262 498.19,177.841 512.5,178.226Z" style="fill:rgb(97,123,97);"/>
            </g>
            <g class="marcador" transform="matrix(1.24299,0,0,1.24299,-303.533,-63.7664)">
                <path d="M512.5,173.819C497.234,174.088 483.516,180.489 473.658,190.658C463.918,200.706 457.922,214.416 458.126,229.5C458.165,238.377 460.442,246.694 464.148,254.135C466.709,259.277 469.946,264.011 473.841,268.159C483.575,278.526 497.181,285.195 512.5,285.776C515.195,285.83 517.853,285.728 520.448,285.37C522.218,285.126 523.956,284.764 525.658,284.314C535.789,281.631 544.706,276.045 551.63,268.63C556.524,263.389 560.353,257.2 562.982,250.409C564.005,247.764 564.86,245.037 565.516,242.227C566.471,238.136 567.034,233.883 567.045,229.5C567.215,214.382 561.177,200.656 551.394,190.606C541.51,180.45 527.775,174.061 512.5,173.819ZM512.5,178.181C526.755,177.955 539.774,183.524 549.251,192.749C558.831,202.074 564.793,215.089 564.955,229.5C564.966,233.718 564.511,237.83 563.547,241.755C562.885,244.446 561.995,247.051 560.89,249.541C558.097,255.837 553.974,261.386 549.016,266.016C542.226,272.356 533.708,276.735 524.324,278.749C522.781,279.08 521.215,279.345 519.63,279.574C517.297,279.912 514.924,280.175 512.5,280.224C498.273,280.763 485.142,275.527 475.514,266.486C471.513,262.73 468.076,258.349 465.505,253.442C461.763,246.301 459.836,238.109 459.874,229.5C460.069,215.055 466.074,202.024 475.697,192.697C485.2,183.484 498.234,177.93 512.5,178.181Z" style="fill:rgb(97,123,97);"/>
            </g>
        </g>
        <g transform="matrix(1,0,0,1,327.311,254.634)">
            <text x="342px" y="229px" style="font-family:'LibreBaskerville-Regular', 'Libre Baskerville';font-size:47.751px;stroke:rgb(2,2,2);stroke-width:1px;">E<tspan x="383.83px 412.672px 445.429px 475.369px 498.815px 524.028px 562.42px " y="229px 229px 229px 229px 229px 229px 229px ">scritos</tspan></text>
        </g>
        <g transform="matrix(1,0,0,1,326.781,270.029)">
            <text x="344.149px" y="246px" style="font-family:'LibreBaskerville-Regular', 'Libre Baskerville';font-size:25.202px;stroke:rgb(2,2,2);stroke-width:1px;">T<tspan x="361.689px 375.979px " y="246px 246px ">ex</tspan>tos de autor</text>
        </g>
    </g>
</svg>
