<?xml version="1.0" encoding="UTF-8"?>
<!DOCTYPE svg  PUBLIC '-//W3C//DTD SVG 1.1//EN'  'http://www.w3.org/Graphics/SVG/1.1/DTD/svg11.dtd'>
<svg clip-rule="evenodd" fill-rule="evenodd" stroke-linejoin="round" stroke-miterlimit="2" version="1.1" viewBox="0 0 1200 1200" xml:space="preserve" xmlns="http://www.w3.org/2000/svg">
    <g class="nodo" transform="translate(84 88)">
        <g transform="translate(-12 13)">
            <g transform="translate(-179 -8)">
                <circle cx="512.5" cy="229.5" r="53.5" fill="#ffebbb"/>
                <path d="m512.5 173.77c-15.227 0.409-28.819 6.929-38.598 17.128-4.909 5.119-8.746 11.193-11.557 17.825-2.722 6.422-4.532 13.371-4.754 20.773-0.378 10.618 2.256 20.652 7.201 29.237 2.207 3.831 4.858 7.393 7.96 10.511 4.131 4.151 9.02 7.539 14.345 10.107 7.668 3.697 16.317 5.613 25.403 5.342 10.493-0.289 20.161-3.566 28.416-8.824 3.613-2.302 6.96-4.97 9.99-7.967 3.035-3.001 5.767-6.307 8.088-9.915 5.306-8.247 8.514-17.978 8.779-28.491 0.261-10.654-2.438-20.724-7.532-29.257-2.261-3.789-5.032-7.244-8.145-10.339-10.141-10.085-24.179-16.234-39.596-16.13zm0 4.452c14.111 0.095 26.8 5.962 36.049 15.225 3.766 3.771 6.948 8.109 9.47 12.862 3.688 6.952 5.992 14.785 6.208 23.187 0.252 9.976-2.282 19.385-6.988 27.412-2.096 3.576-4.6 6.895-7.5 9.827-2.902 2.936-6.182 5.507-9.752 7.622-8.024 4.752-17.489 7.217-27.487 6.942-8.407-0.251-16.245-2.566-23.174-6.31-4.723-2.553-8.954-5.844-12.724-9.595-2.832-2.818-5.428-5.871-7.627-9.232-5.045-7.712-8.215-16.789-8.566-26.666-0.213-7.106 0.853-13.973 3.374-20.177 2.618-6.443 6.726-12.13 11.67-16.87 9.585-9.191 22.737-14.612 37.047-14.227z" fill="#dec58c"/>
            </g>
            <g class="marcador" transform="matrix(1.243 0 0 1.243 -303.53 -63.766)">
                <path d="m512.5 173.82c-15.266 0.269-28.984 6.67-38.842 16.839-9.74 10.048-15.736 23.758-15.532 38.842 0.039 8.877 2.316 17.194 6.022 24.635 2.561 5.142 5.798 9.876 9.693 14.024 9.734 10.367 23.34 17.036 38.659 17.617 2.695 0.054 5.353-0.048 7.948-0.406 1.77-0.244 3.508-0.606 5.21-1.056 10.131-2.683 19.048-8.269 25.972-15.684 4.894-5.241 8.723-11.43 11.352-18.221 1.023-2.645 1.878-5.372 2.534-8.182 0.955-4.091 1.518-8.344 1.529-12.727 0.17-15.118-5.868-28.844-15.651-38.894-9.884-10.156-23.619-16.545-38.894-16.787zm0 4.362c14.255-0.226 27.274 5.343 36.751 14.568 9.58 9.325 15.542 22.34 15.704 36.751 0.011 4.218-0.444 8.33-1.408 12.255-0.662 2.691-1.552 5.296-2.657 7.786-2.793 6.296-6.916 11.845-11.874 16.475-6.79 6.34-15.308 10.719-24.692 12.733-1.543 0.331-3.109 0.596-4.694 0.825-2.333 0.338-4.706 0.601-7.13 0.65-14.227 0.539-27.358-4.697-36.986-13.738-4.001-3.756-7.438-8.137-10.009-13.044-3.742-7.141-5.669-15.333-5.631-23.942 0.195-14.445 6.2-27.476 15.823-36.803 9.503-9.213 22.537-14.767 36.803-14.516z" fill="#dec58c"/>
            </g>
        </g>
        <g transform="translate(0 -21.366)">
            <text x="342px" y="229px" font-family="'LibreBaskerville-Regular', 'Libre Baskerville'" font-size="47.751px" stroke="rgb(2,2,2)" stroke-width="1px">S<tspan x="379.962px 414.486px " y="229px 229px ">er</tspan></text>
        </g>
        <g transform="translate(-18.134 1.7228)">
            <text x="344.149px" y="246px" font-family="'LibreBaskerville-Regular', 'Libre Baskerville'" font-size="25.202px" stroke="rgb(2,2,2)" stroke-width="1px">El Silencio Donde Escucho</text>
        </g>
    </g>
    <g class="nodo" transform="translate(137.03 83)">
        <g transform="translate(-126.85 580.86)">
            <g transform="translate(-179 -8)">
                <circle cx="512.5" cy="229.5" r="53.5" fill="#bbcdff"/>
                <path d="m512.5 173.77c-15.227 0.409-28.819 6.929-38.598 17.128-4.909 5.119-8.746 11.193-11.557 17.825-2.722 6.422-4.532 13.371-4.754 20.773-0.378 10.618 2.256 20.652 7.201 29.237 2.207 3.831 4.858 7.393 7.96 10.511 4.131 4.151 9.02 7.539 14.345 10.107 7.668 3.697 16.317 5.613 25.403 5.342 10.493-0.289 20.161-3.566 28.416-8.824 3.613-2.302 6.96-4.97 9.99-7.967 3.035-3.001 5.767-6.307 8.088-9.915 5.306-8.247 8.514-17.978 8.779-28.491 0.261-10.654-2.438-20.724-7.532-29.257-2.261-3.789-5.032-7.244-8.145-10.339-10.141-10.085-24.179-16.234-39.596-16.13zm0 4.452c14.111 0.095 26.8 5.962 36.049 15.225 3.766 3.771 6.948 8.109 9.47 12.862 3.688 6.952 5.992 14.785 6.208 23.187 0.252 9.976-2.282 19.385-6.988 27.412-2.096 3.576-4.6 6.895-7.5 9.827-2.902 2.936-6.182 5.507-9.752 7.622-8.024 4.752-17.489 7.217-27.487 6.942-8.407-0.251-16.245-2.566-23.174-6.31-4.723-2.553-8.954-5.844-12.724-9.595-2.832-2.818-5.428-5.871-7.627-9.232-5.045-7.712-8.215-16.789-8.566-26.666-0.213-7.106 0.853-13.973 3.374-20.177 2.618-6.443 6.726-12.13 11.67-16.87 9.585-9.191 22.737-14.612 37.047-14.227z" fill="#8496c8"/>
            </g>
            <g class="marcador" transform="matrix(1.243 0 0 1.243 -303.53 -63.766)">
                <path d="m512.5 173.82c-15.266 0.269-28.984 6.67-38.842 16.839-9.74 10.048-15.736 23.758-15.532 38.842 0.039 8.877 2.316 17.194 6.022 24.635 2.561 5.142 5.798 9.876 9.693 14.024 9.734 10.367 23.34 17.036 38.659 17.617 2.695 0.054 5.353-0.048 7.948-0.406 1.77-0.244 3.508-0.606 5.21-1.056 10.131-2.683 19.048-8.269 25.972-15.684 4.894-5.241 8.723-11.43 11.352-18.221 1.023-2.645 1.878-5.372 2.534-8.182 0.955-4.091 1.518-8.344 1.529-12.727 0.17-15.118-5.868-28.844-15.651-38.894-9.884-10.156-23.619-16.545-38.894-16.787zm0 4.362c14.255-0.226 27.274 5.343 36.751 14.568 9.58 9.325 15.542 22.34 15.704 36.751 0.011 4.218-0.444 8.33-1.408 12.255-0.662 2.691-1.552 5.296-2.657 7.786-2.793 6.296-6.916 11.845-11.874 16.475-6.79 6.34-15.308 10.719-24.692 12.733-1.543 0.331-3.109 0.596-4.694 0.825-2.333 0.338-4.706 0.601-7.13 0.65-14.227 0.539-27.358-4.697-36.986-13.738-4.001-3.756-7.438-8.137-10.009-13.044-3.742-7.141-5.669-15.333-5.631-23.942 0.195-14.445 6.2-27.476 15.823-36.803 9.503-9.213 22.537-14.767 36.803-14.516z" fill="#8496c8"/>
            </g>
        </g>
        <g transform="translate(-115 543.63)">
            <text x="342px" y="229px" font-family="'LibreBaskerville-Regular', 'Libre Baskerville'" font-size="47.751px" stroke="rgb(2,2,2)" stroke-width="1px">P<tspan x="381.968px 411.383px 449.775px 489.36px 528.517px 563.041px 591.883px 617.095px 650.712px " y="229px 229px 229px 229px 229px 229px 229px 229px 229px ">ropuestas</tspan></text>
        </g>
        <g transform="translate(-133.13 566.72)">
            <text x="344.149px" y="246px" font-family="'LibreBaskerville-Regular', 'Libre Baskerville'" font-size="25.202px" stroke="rgb(2,2,2)" stroke-width="1px">Encuentr<tspan x="463.279px " y="246px ">o</tspan>s, taller<tspan x="571.371px " y="246px ">e</tspan>s, seminarios</text>
        </g>
    </g>
    <g class="nodo" transform="translate(84 88)">
        <g transform="translate(303 290.19)">
            <g transform="translate(-179 -8)">
                <circle cx="512.5" cy="229.5" r="53.5" fill="#d8ebd8"/>
                <path d="m512.5 173.77c-15.227 0.409-28.819 6.929-38.598 17.128-4.909 5.119-8.746 11.193-11.557 17.825-2.722 6.422-4.532 13.371-4.754 20.773-0.378 10.618 2.256 20.652 7.201 29.237 2.207 3.831 4.858 7.393 7.96 10.511 4.131 4.151 9.02 7.539 14.345 10.107 7.668 3.697 16.317 5.613 25.403 5.342 10.493-0.289 20.161-3.566 28.416-8.824 3.613-2.302 6.96-4.97 9.99-7.967 3.035-3.001 5.767-6.307 8.088-9.915 5.306-8.247 8.514-17.978 8.779-28.491 0.261-10.654-2.438-20.724-7.532-29.257-2.261-3.789-5.032-7.244-8.145-10.339-10.141-10.085-24.179-16.234-39.596-16.13zm0 4.452c14.111 0.095 26.8 5.962 36.049 15.225 3.766 3.771 6.948 8.109 9.47 12.862 3.688 6.952 5.992 14.785 6.208 23.187 0.252 9.976-2.282 19.385-6.988 27.412-2.096 3.576-4.6 6.895-7.5 9.827-2.902 2.936-6.182 5.507-9.752 7.622-8.024 4.752-17.489 7.217-27.487 6.942-8.407-0.251-16.245-2.566-23.174-6.31-4.723-2.553-8.954-5.844-12.724-9.595-2.832-2.818-5.428-5.871-7.627-9.232-5.045-7.712-8.215-16.789-8.566-26.666-0.213-7.106 0.853-13.973 3.374-20.177 2.618-6.443 6.726-12.13 11.67-16.87 9.585-9.191 22.737-14.612 37.047-14.227z" fill="#617b61"/>
            </g>
            <g class="marcador" transform="matrix(1.243 0 0 1.243 -303.53 -63.766)">
                <path d="m512.5 173.82c-15.266 0.269-28.984 6.67-38.842 16.839-9.74 10.048-15.736 23.758-15.532 38.842 0.039 8.877 2.316 17.194 6.022 24.635 2.561 5.142 5.798 9.876 9.693 14.024 9.734 10.367 23.34 17.036 38.659 17.617 2.695 0.054 5.353-0.048 7.948-0.406 1.77-0.244 3.508-0.606 5.21-1.056 10.131-2.683 19.048-8.269 25.972-15.684 4.894-5.241 8.723-11.43 11.352-18.221 1.023-2.645 1.878-5.372 2.534-8.182 0.955-4.091 1.518-8.344 1.529-12.727 0.17-15.118-5.868-28.844-15.651-38.894-9.884-10.156-23.619-16.545-38.894-16.787zm0 4.362c14.255-0.226 27.274 5.343 36.751 14.568 9.58 9.325 15.542 22.34 15.704 36.751 0.011 4.218-0.444 8.33-1.408 12.255-0.662 2.691-1.552 5.296-2.657 7.786-2.793 6.296-6.916 11.845-11.874 16.475-6.79 6.34-15.308 10.719-24.692 12.733-1.543 0.331-3.109 0.596-4.694 0.825-2.333 0.338-4.706 0.601-7.13 0.65-14.227 0.539-27.358-4.697-36.986-13.738-4.001-3.756-7.438-8.137-10.009-13.044-3.742-7.141-5.669-15.333-5.631-23.942 0.195-14.445 6.2-27.476 15.823-36.803 9.503-9.213 22.537-14.767 36.803-14.516z" fill="#617b61"/>
            </g>
        </g>
        <g transform="translate(327.31 254.63)">
            <text x="342px" y="229px" font-family="'LibreBaskerville-Regular', 'Libre Baskerville'" font-size="47.751px" stroke="rgb(2,2,2)" stroke-width="1px">E<tspan x="383.83px 412.672px 445.429px 475.369px 498.815px 524.028px 562.42px " y="229px 229px 229px 229px 229px 229px 229px ">scritos</tspan></text>
        </g>
        <g transform="translate(326.78 270.03)">
            <text x="344.149px" y="246px" font-family="'LibreBaskerville-Regular', 'Libre Baskerville'" font-size="25.202px" stroke="rgb(2,2,2)" stroke-width="1px">T<tspan x="361.689px 375.979px " y="246px 246px ">ex</tspan>tos de autor</text>
        </g>
    </g>
</svg>
